<?xml version="1.0" encoding="UTF-8"?> <svg xmlns="http://www.w3.org/2000/svg" width="59" height="68.7" viewBox="0 0 59 68.7"><defs><style>.cls-1{fill:#fff;}</style></defs><title>magic-white-logo-60x71</title><g id="Layer_2" data-name="Layer 2"><g id="Layer_1-2" data-name="Layer 1"><path class="cls-1" d="M52.9,31.3h-.5v.6h.3c.2,0,.5,0,.5-.3A.3.3,0,0,0,52.9,31.3Z"></path><path class="cls-1" d="M52.7,30.8A1.2,1.2,0,1,0,53.9,32,1.2,1.2,0,0,0,52.7,30.8Zm.7,2h-.2l-.4-.8h-.4v.8h-.2V31.2h.7c.4,0,.6.1.6.4s-.3.4-.5.4Z"></path><path class="cls-1" d="M27.9,35.4a2.1,2.1,0,0,0-1.7.8,2.7,2.7,0,0,0-.7,2,3.2,3.2,0,0,0,.6,2,2.4,2.4,0,0,0,3.6,0,3.2,3.2,0,0,0,0-4A2.5,2.5,0,0,0,27.9,35.4Z"></path><path class="cls-1" d="M37,35.4a2,2,0,0,0-1.8.9,2.9,2.9,0,0,0-.6,1.9,3.2,3.2,0,0,0,.6,2,2.4,2.4,0,0,0,3.6,0,3.2,3.2,0,0,0,.6-2,2.7,2.7,0,0,0-.7-2A2.1,2.1,0,0,0,37,35.4Z"></path><polygon class="cls-1" points="48.1 33.2 42.8 32.9 37.9 32.2 38.1 33.5 38.6 34 39.3 34.8 39.3 33.8 41.5 33.8 44.6 33.8 48.2 33.6 48.1 33.2"></polygon><polygon class="cls-1" points="36.1 33.5 28.6 33.4 29.3 33.9 30.2 34.9 30.2 33.8 32.3 33.8 33 34.1 34.9 33.8 36.1 33.5"></polygon><path class="cls-1" d="M58.6,21a10,10,0,0,0-.2-1.6c-.3-1.2-.4-2.4-.7-3.6A32.7,32.7,0,0,0,56,10.5a20.4,20.4,0,0,0-3.6-6A12.7,12.7,0,0,0,47.1.7,10.3,10.3,0,0,0,44.6,0H41.9a6.5,6.5,0,0,0-3.3,1.4,25.5,25.5,0,0,0-5.1,5.3c-1.5,2.1-3.1,4.1-4.7,6.1a45,45,0,0,1-7,6.8c-2.3,2-4.7,3.8-7.1,5.7S10.8,28.5,9,30.1a38.5,38.5,0,0,0-5.2,5.5,20.6,20.6,0,0,0-2.5,4A18.3,18.3,0,0,0,.1,44.2a13.4,13.4,0,0,0,.3,4.9,15.3,15.3,0,0,0,4.2,7.4,34.8,34.8,0,0,0,8.3,5.9c2.3,1.3,4.6,2.4,7,3.5A39.4,39.4,0,0,0,26.8,68l2.2.4,3,.3a40.3,40.3,0,0,0,4.9-.3,19.8,19.8,0,0,0,3.3-.8,19,19,0,0,0,6.2-3.1,19.5,19.5,0,0,0,4.7-4.8A22.4,22.4,0,0,0,54.2,54a35.7,35.7,0,0,0,1.6-4.6c.3-1.1.5-2.1.8-3.2l.9-3.7c.2-1.4.5-2.9.7-4.4l.6-4.7c.1-1.4.2-2.9.2-4.3A73.2,73.2,0,0,0,58.6,21ZM23.1,42.5h-2V37.7a4.2,4.2,0,0,0-.3-1.8,1.1,1.1,0,0,0-1-.5,1.2,1.2,0,0,0-1.2.6,3.9,3.9,0,0,0-.4,2.1v4.4h-2V37.7c0-1.5-.5-2.3-1.4-2.3a1.3,1.3,0,0,0-1.2.7,3.3,3.3,0,0,0-.4,2v4.4h-2V33.8h2v.9a3.8,3.8,0,0,1,1-.9l1.1-.2a2.5,2.5,0,0,1,2.3,1.3,3,3,0,0,1,2.6-1.3c2,0,2.9,1.2,2.9,3.6Zm9.2,0H30.2v-.9a3.7,3.7,0,0,1-2.6,1.2,3.8,3.8,0,0,1-3-1.3,5.1,5.1,0,0,1,0-6.6,3.6,3.6,0,0,1,2.9-1.3,3.5,3.5,0,0,1,2.7,1.3V33.8h2.1Zm9.1-.2c0,.5-.1.8-.1,1.1a2.8,2.8,0,0,1-.1.9,3,3,0,0,1-.8,1.6,4.2,4.2,0,0,1-3.3,1.4,4.3,4.3,0,0,1-2.8-.9,4,4,0,0,1-1.4-2.7h2a3,3,0,0,0,.4,1,2.2,2.2,0,0,0,1.8.8c1.5,0,2.2-.9,2.2-2.7V41.6a3.7,3.7,0,0,1-2.7,1.2,3.5,3.5,0,0,1-2.9-1.3,4.5,4.5,0,0,1-1.2-3.2A5.2,5.2,0,0,1,33.6,35a3.9,3.9,0,0,1,3-1.4,3.4,3.4,0,0,1,2.7,1.2v-1h2.1Zm.7-13a1.8,1.8,0,0,1,.9-.4,1.8,1.8,0,0,1,1,.4,1.8,1.8,0,0,1,.4.9,1.8,1.8,0,0,1-.4,1,1.8,1.8,0,0,1-.9.4,1.4,1.4,0,0,1-1.4-1.4A1.8,1.8,0,0,1,42.1,29.3Zm2,13.2H42V33.8h2.1Zm7.4-5.6a6.7,6.7,0,0,0-1.2-1.2,2.8,2.8,0,0,0-1.3-.3,2.9,2.9,0,0,0-1.9,4.8A2.6,2.6,0,0,0,49,41a2.8,2.8,0,0,0,1.3-.3,6.6,6.6,0,0,0,1.2-1.2v2.7a5.3,5.3,0,0,1-2.4.6,4.6,4.6,0,0,1-3.4-7.9,5.1,5.1,0,0,1,3.4-1.3,5,5,0,0,1,2.4.6Zm1.2-3.5A1.5,1.5,0,0,1,51.3,32a1.4,1.4,0,0,1,1.4-1.4A1.4,1.4,0,0,1,54.1,32,1.4,1.4,0,0,1,52.7,33.4Z"></path></g></g></svg> 